<svg xmlns="http://www.w3.org/2000/svg" viewBox="0 0 128 128" role="img" aria-label="VaderApp logo">
  <defs>
    <linearGradient id="sky" x1="18" y1="18" x2="110" y2="110" gradientUnits="userSpaceOnUse">
      <stop offset="0" stop-color="#35dcdc"/>
      <stop offset="1" stop-color="#27b4a1"/>
    </linearGradient>
    <linearGradient id="cloud" x1="32" y1="54" x2="98" y2="90" gradientUnits="userSpaceOnUse">
      <stop offset="0" stop-color="#ffffff"/>
      <stop offset="1" stop-color="#dff9f6"/>
    </linearGradient>
  </defs>
  <circle cx="64" cy="64" r="58" fill="#2c3e50"/>
  <circle cx="64" cy="64" r="48" fill="url(#sky)"/>
  <circle cx="82" cy="42" r="15" fill="#ffd66b"/>
  <path fill="url(#cloud)" d="M35 82h58c9 0 16-7 16-15s-7-15-16-15h-2c-4-12-15-20-28-20-16 0-29 12-30 28-8 1-14 6-14 13 0 5 5 9 16 9z"/>
  <path fill="none" stroke="#2c3e50" stroke-linecap="round" stroke-width="8" d="M43 89l12 18 30-44"/>
</svg>
